<?xml version="1.0" encoding="UTF-8"?>
<svg id="Layer_2" data-name="Layer 2" xmlns="http://www.w3.org/2000/svg" viewBox="0 0 745.49 632.88">
  <defs>
    <style>
      .cls-1 {
        font-family: Migra-Semibold, Migra;
        font-size: 150px;
        font-weight: 600;
      }

      .cls-1, .cls-2, .cls-3 {
        fill: #fff;
      }

      .cls-4 {
        letter-spacing: 0em;
      }

      .cls-4, .cls-5, .cls-6, .cls-7, .cls-8, .cls-9, .cls-10, .cls-11, .cls-12, .cls-13 {
        font-variation-settings: 'wght' 510;
        font-weight: 500;
      }

      .cls-4, .cls-5, .cls-6, .cls-7, .cls-8, .cls-10, .cls-11, .cls-14, .cls-13 {
        font-size: 48px;
      }

      .cls-4, .cls-5, .cls-6, .cls-7, .cls-8, .cls-10, .cls-11, .cls-13 {
        font-family: PPEiko-Medium, 'PP Eiko';
      }

      .cls-5 {
        letter-spacing: 0em;
      }

      .cls-6 {
        letter-spacing: 0em;
      }

      .cls-7 {
        letter-spacing: 0em;
      }

      .cls-15 {
        letter-spacing: -.02em;
      }

      .cls-16 {
        letter-spacing: -.06em;
      }

      .cls-8 {
        letter-spacing: .01em;
      }

      .cls-9 {
        letter-spacing: .11em;
      }

      .cls-9, .cls-12 {
        font-family: PPEikoItalic-Medium, 'PP Eiko Italic';
        font-size: 24px;
      }

      .cls-10 {
        letter-spacing: .03em;
      }

      .cls-11 {
        letter-spacing: -.14em;
      }

      .cls-14 {
        font-family: PPEiko-Bold, 'PP Eiko';
        font-variation-settings: 'wght' 620;
        font-weight: 700;
        letter-spacing: .2em;
      }

      .cls-3 {
        stroke-width: 0px;
      }

      .cls-12 {
        letter-spacing: .1em;
      }

      .cls-13 {
        letter-spacing: -.02em;
      }

      .cls-17 {
        letter-spacing: -.03em;
      }
    </style>
  </defs>
  <g id="Layer_1-2" data-name="Layer 1">
    <g>
      <g>
        <path class="cls-3" d="M372.75,0c-36.39,0-65.88,20.08-65.88,80s29.5,80,65.88,80,65.88-20.08,65.88-80S409.13,0,372.75,0ZM372.75,158.59c-19.42,0-34.75-5.75-45.56-17.09-12.55-13.16-18.91-33.85-18.91-61.49s6.36-48.33,18.91-61.49c10.81-11.34,26.14-17.09,45.56-17.09s34.75,5.75,45.56,17.09c12.55,13.16,18.91,33.85,18.91,61.49s-6.36,48.33-18.91,61.49c-10.81,11.34-26.14,17.09-45.56,17.09Z"/>
        <path class="cls-3" d="M435.33,79.76c0-57.27-28.02-76.47-62.59-76.47s-62.59,19.2-62.59,76.47,28.02,76.47,62.59,76.47,62.59-19.2,62.59-76.47ZM372.75,154.82c-18.43,0-32.98-5.49-43.23-16.32-11.91-12.57-17.94-32.34-17.94-58.74s6.04-46.17,17.94-58.74c10.25-10.83,24.8-16.32,43.23-16.32s32.98,5.49,43.23,16.32c11.91,12.57,17.94,32.34,17.94,58.74s-6.04,46.17-17.94,58.74c-10.26,10.83-24.8,16.32-43.23,16.32Z"/>
        <path class="cls-3" d="M412.75,79.76c0-40.35-17.91-53.88-40-53.88s-40,13.53-40,53.88,17.91,53.88,40,53.88,40-13.53,40-53.88ZM372.75,132.15c-11.58,0-20.72-3.8-27.15-11.29-7.53-8.77-11.35-22.6-11.35-41.1s3.82-32.33,11.35-41.1c6.43-7.49,15.57-11.29,27.15-11.29s20.72,3.8,27.15,11.29c7.53,8.77,11.35,22.6,11.35,41.1s-3.82,32.33-11.35,41.1c-6.43,7.49-15.57,11.29-27.15,11.29Z"/>
        <polygon class="cls-3" points="424.04 74.53 426.57 76.98 424.04 79.43 421.51 76.98 424.04 74.53"/>
        <polygon class="cls-3" points="321.69 74.53 324.21 76.98 321.69 79.43 319.16 76.98 321.69 74.53"/>
        <g>
          <polygon class="cls-3" points="320.47 50.4 320.37 50.38 319.85 53.3 319.95 53.32 322.01 52.32 327.29 55.06 320.26 56.03 319.65 55.04 319.54 55.02 318.86 58.85 318.97 58.87 320.03 58.28 322.44 57.94 326.44 60.11 319.34 61.23 318.72 60.24 318.61 60.22 317.93 64.05 318.04 64.07 319.1 63.5 327.65 62.11 327.92 60.56 322.97 57.87 328.54 57.07 328.82 55.5 322.11 52.01 320.47 50.4"/>
          <path class="cls-3" d="M328.99,40.01c-1.34-.5-2.58-.5-3.71.02-1.13.51-1.95,1.43-2.46,2.78-.5,1.34-.49,2.58.02,3.71.52,1.13,1.44,1.94,2.79,2.45,1.34.5,2.58.5,3.71,0,1.14-.52,1.96-1.44,2.46-2.78.5-1.34.49-2.58-.02-3.71-.52-1.14-1.45-1.95-2.79-2.46ZM331.51,46.06c-.55,1.45-2.22,1.66-5.02.6-2.8-1.05-3.93-2.31-3.39-3.76.55-1.45,2.22-1.65,5.02-.6,2.8,1.06,3.93,2.31,3.38,3.75Z"/>
          <polygon class="cls-3" points="335.94 31.86 336.97 35.16 335.73 37.04 329.03 32.62 328.87 31.46 328.78 31.4 326.57 34.74 326.66 34.81 327.81 34.49 334.03 38.59 334.19 39.76 334.27 39.82 338.49 33.42 336 31.77 335.94 31.86"/>
          <polygon class="cls-3" points="341.53 29.18 339.22 26.54 340.41 25.51 342.26 25.68 342.35 25.61 340.37 23.35 340.29 23.42 340.2 25.27 339.01 26.31 336.24 23.14 338.06 21.54 341.04 21.98 341.12 21.91 339.4 19.96 333.68 24.96 333.76 25.05 334.94 25.04 339.85 30.65 339.69 31.83 339.76 31.9 343.05 29.02 342.98 28.95 341.53 29.18"/>
          <path class="cls-3" d="M354.87,16.68l-1.98-.03c-.51,0-.89-.09-1.15-.24-.25-.16-.43-.4-.54-.74-.13-.41-.07-.79.18-1.16.25-.37.65-.64,1.18-.81.35-.12.72-.18,1.1-.18l2.32,2.15.1-.03-.25-2.72c-1.37.05-2.53.23-3.48.54-.94.3-1.65.77-2.13,1.39-.48.63-.59,1.33-.34,2.12.39,1.22,1.36,1.84,2.88,1.87l2.01.02c1.03.02,1.55.35,1.8,1.11.16.5.11.97-.15,1.4-.26.43-.71.75-1.32.95-.34.11-.69.17-1.06.17l-2.55-2.31h-.13s.3,2.92.3,2.92c1.52-.06,2.75-.23,3.69-.53,1.01-.32,1.79-.86,2.33-1.6.54-.75.66-1.58.36-2.51-.39-1.2-1.39-1.72-3.18-1.77Z"/>
          <path class="cls-3" d="M369.11,18.82l-3.93-7.79-2.82.31v.11s.96.69.96.69l-1.68,6.55-1.09,2.03v.1s2.97-.33,2.97-.33v-.1s-1.55-1.69-1.55-1.69l.39-1.53,3.3-.36,1.21,2.42-.78.87v.1s3.89-.43,3.89-.43v-.1s-.86-.86-.86-.86ZM362.44,16.84l1.1-4.31,1.98,3.97-3.08.34Z"/>
          <polygon class="cls-3" points="372.35 10.77 373.23 11.56 373.09 19.02 372.18 19.78 372.18 19.88 376.19 19.96 376.19 19.86 375.32 19.06 375.47 11.6 376.36 10.84 376.36 10.73 372.36 10.66 372.35 10.77"/>
          <polygon class="cls-3" points="386.31 11.98 387.58 13.82 386.74 18.93 383.32 11.38 380.16 10.86 380.14 10.97 381.2 12.08 380.15 18.48 378.62 19.85 378.61 19.96 381.73 20.47 381.75 20.37 380.47 18.53 381.46 12.52 385.35 21.06 386.69 21.28 387.9 13.87 389.44 12.5 389.45 12.39 386.33 11.87 386.31 11.98"/>
          <polygon class="cls-3" points="392.01 16.24 392.11 16.28 394.77 14.47 395.84 14.92 392.74 22.33 391.62 22.71 391.58 22.8 395.27 24.35 395.31 24.25 394.79 23.19 397.9 15.78 398.96 16.23 399.53 19.39 399.63 19.43 400.79 16.66 393.17 13.47 392.01 16.24"/>
          <polygon class="cls-3" points="410.23 32.7 406.78 32.9 405.26 31.24 411.18 25.82 412.35 25.94 412.43 25.87 409.72 22.91 409.64 22.99 409.67 24.17 404.17 29.21 402.99 29.07 402.91 29.14 408.09 34.8 410.3 32.78 410.23 32.7"/>
          <path class="cls-3" d="M418.48,34.18l-.1.05-.3,1.13-6.71.84-2.29-.27-.09.05,1.39,2.64.09-.05,1.01-2.05,1.56-.2,1.55,2.94-1.81,2.02-1.1-.41-.09.05,1.82,3.46.09-.05.49-1.11,5.81-6.52-1.32-2.51ZM414.83,39.01l-1.44-2.74,4.41-.56-2.97,3.3Z"/>
          <polygon class="cls-3" points="421.15 49.56 423.22 50.77 425.38 52.51 425.51 52.47 424.46 48.88 424.36 48.91 423.38 50.49 419 47.93 422.92 46.78 423.91 47.41 424.02 47.37 422.89 43.53 422.79 43.56 422.29 44.64 415.13 46.73 414.14 46.09 414.04 46.12 415.18 50.01 415.27 49.98 415.76 48.88 418.58 48.05 419.28 48.46 416.6 51.83 415.74 51.56 415.64 51.59 416.78 55.5 416.88 55.47 417.48 54.22 421.15 49.56"/>
          <polygon class="cls-3" points="426.22 56.13 426.12 56.15 425.48 57.15 418.1 58.25 417.2 57.48 417.1 57.49 418.26 65.29 421.07 64.87 421.06 64.77 418.26 63.13 417.87 60.54 422.1 59.91 422.31 61.34 421.16 62.82 421.18 62.93 424.15 62.49 424.13 62.38 422.63 61.31 422.41 59.86 426.38 59.27 426.74 61.71 424.76 63.96 424.78 64.06 427.35 63.68 426.22 56.13"/>
        </g>
        <g>
          <path class="cls-3" d="M319.74,93.61c-.06-.65.09-1.2.47-1.66.38-.45.91-.72,1.6-.79.68-.07,1.25.09,1.71.46.46.37.73.89.79,1.53.06.65-.09,1.2-.47,1.66-.38.45-.91.72-1.59.79-.68.07-1.26-.09-1.72-.46-.46-.37-.73-.88-.79-1.53ZM323.7,94.13c.32-.27.47-.59.43-.96-.04-.37-.24-.65-.61-.86-.37-.2-.91-.27-1.61-.2-.71.07-1.23.24-1.55.51-.32.27-.47.59-.43.96s.24.65.61.85c.37.2.91.26,1.62.19.7-.07,1.22-.24,1.54-.51Z"/>
          <path class="cls-3" d="M325.69,98.88l-.75.11.22,1.44-.18.03-.22-1.44-3.74.56-.22.86h-.07s-.35-2.27-.35-2.27h.07s.43.56.43.56l3.74-.56-.1-.68.18-.03.1.68.22-.03c1.1-.17,1.72.23,1.87,1.2.05.36.04.78-.04,1.27l-1.11-.22v-.06s.99-.58.99-.58c0-.16,0-.27-.01-.31-.07-.44-.41-.62-1.05-.52Z"/>
          <path class="cls-3" d="M326.73,108.46l-.35-1.38-3.12.78c-.4.1-.58.38-.5.72.07.28.27.47.59.56l-.02.11c-.25-.04-.48-.13-.68-.28-.2-.15-.33-.37-.41-.65-.16-.65.13-1.12.77-1.28l3.15-.79-.17-.67.18-.04.17.67,1.37.47.02.07-1.18.29.35,1.38-.18.04Z"/>
          <path class="cls-3" d="M325,115.54l-.12.7-.06.02-.67-1.99.07-.02.52.47,2.47-.84c.68-.23.92-.62.73-1.17-.15-.45-.48-.77-.99-.97l-2.88.98-.13.7-.06.02-.67-1.99.07-.02.53.49,5.02-1.71.14-.71.07-.02.48,1.41-2.34.79c.65.24,1.07.66,1.28,1.26.29.85-.04,1.46-.9,1.75l-2.52.86Z"/>
          <path class="cls-3" d="M328.14,118.3c-.52.25-.86.57-1.05.97-.17.4-.17.8.02,1.2.29.61.78.94,1.48.98v.14c-.43.05-.84-.02-1.22-.21-.37-.19-.66-.51-.87-.96-.26-.55-.29-1.11-.09-1.65.2-.54.6-.95,1.2-1.23.65-.31,1.26-.37,1.82-.19.56.18.97.56,1.24,1.14.26.55.3,1.05.12,1.52s-.55.83-1.11,1.09l-.2.09-1.34-2.88ZM329.28,120.31l.07-.03c1.09-.51,1.48-1.09,1.18-1.73-.15-.32-.42-.51-.82-.58-.4-.07-.86.02-1.4.25l.97,2.09Z"/>
          <path class="cls-3" d="M330.33,130.2l.07-.06,1.4.17,4.72-4.37-.25-1.09.07-.06,1.37,1.48-1.86,5.54,5.48-1.62,1.36,1.47-.07.07-1.02-.34-5.03,4.65.25,1.04-.07.06-2.09-2.26.07-.06,1.01.32,4.82-4.46-5.96,1.78-.17-.18,1.97-5.88-4.43,4.1.14,1.5-.07.06-1.73-1.87Z"/>
          <path class="cls-3" d="M341.43,139.2c-.26-1.05-.08-2.11.53-3.19.62-1.08,1.45-1.78,2.48-2.08,1.04-.3,2.07-.16,3.1.43,1.04.59,1.69,1.41,1.95,2.46.26,1.04.09,2.11-.53,3.19-.62,1.08-1.45,1.78-2.48,2.08-1.03.31-2.07.16-3.11-.43-1.03-.59-1.68-1.41-1.95-2.46ZM345.7,141.51c.77-.34,1.47-1.06,2.11-2.17.63-1.11.9-2.08.8-2.92-.1-.84-.49-1.45-1.18-1.84-.68-.39-1.4-.41-2.17-.07-.77.34-1.47,1.06-2.1,2.17-.63,1.11-.9,2.08-.8,2.92.1.83.49,1.44,1.17,1.83.68.39,1.41.42,2.18.08Z"/>
          <path class="cls-3" d="M352.14,144.37c-.51-.95-.61-2.02-.28-3.22.33-1.2.95-2.08,1.88-2.63.93-.55,1.97-.67,3.11-.36,1.15.31,1.99.94,2.5,1.89.52.94.61,2.02.28,3.22-.33,1.2-.95,2.08-1.88,2.64-.92.55-1.96.67-3.12.36-1.15-.31-1.98-.94-2.5-1.89ZM356.85,145.54c.66-.52,1.16-1.39,1.5-2.63.34-1.23.35-2.24.04-3.03-.31-.78-.84-1.28-1.6-1.49-.76-.21-1.46-.05-2.12.47-.66.52-1.16,1.4-1.49,2.63-.34,1.23-.35,2.24-.05,3.02.31.78.84,1.27,1.59,1.48.76.21,1.47.05,2.13-.46Z"/>
          <path class="cls-3" d="M361.95,147.7v-.09s1.17-.82,1.17-.82l.53-6.37-.97-.67v-.1s2.03.17,2.03.17l4.09,7.06.47-5.67-1.12-1.01v-.1s2.54.21,2.54.21v.1s-1.17.82-1.17.82l-.59,7.05-.74-.06-4.33-7.49-.51,6.08,1.12,1.01v.09s-2.54-.21-2.54-.21Z"/>
          <path class="cls-3" d="M378.68,148.23v-.09s.92-1.06.92-1.06l-.95-6.36-1.04-.4v-.09s1.98-.3,1.98-.3l3.53,4.65,1.75-5.45,1.98-.3v.09s-.84.65-.84.65l1.01,6.78,1.01.38v.09s-3.03.46-3.03.46v-.09s.83-.66.83-.66l-.97-6.49-1.88,5.93-.25.04-3.75-4.94.89,5.97,1.32.73v.09s-2.5.38-2.5.38Z"/>
          <path class="cls-3" d="M392.24,144.54c-.98-.46-1.69-1.27-2.14-2.43-.45-1.16-.47-2.24-.05-3.23.42-1,1.18-1.71,2.29-2.14,1.12-.43,2.16-.42,3.14.03.97.45,1.69,1.26,2.14,2.42.45,1.16.47,2.24.06,3.24-.41.99-1.18,1.71-2.29,2.14-1.11.43-2.16.42-3.14-.03ZM396.72,142.69c.22-.81.11-1.81-.36-3.01-.46-1.19-1.05-2.01-1.76-2.46s-1.44-.53-2.17-.25c-.73.28-1.2.83-1.43,1.64-.22.81-.1,1.81.36,3,.46,1.19,1.05,2.01,1.76,2.46.71.44,1.43.53,2.16.24.74-.29,1.21-.83,1.44-1.64Z"/>
          <path class="cls-3" d="M397.6,134.78l-.06-.08,2.48-1.82.06.08-.44.97,2.63,3.58c.49.67,1.04,1.08,1.64,1.22.6.14,1.2-.01,1.81-.46.61-.45.93-1,.94-1.66.02-.66-.23-1.32-.73-2.01l-2.23-3.04-1.54-.14-.06-.08,2.02-1.48.06.08-.26,1.47,2.23,3.04c.6.82.88,1.64.82,2.43-.05.79-.48,1.48-1.27,2.07-.78.58-1.56.8-2.34.68-.78-.12-1.45-.58-2.03-1.36l-2.67-3.63-1.06.14Z"/>
          <path class="cls-3" d="M411.41,133.88l-.07-.06-.05-1.42-5.04-3.93-1.09.45-.08-.06,1.25-1.61,8.15.43-4.48-3.49-1.46.38-.08-.06,1.56-2.01.08.06.05,1.42,5.58,4.34-.46.59-8.63-.47,4.81,3.74,1.46-.38.07.06-1.56,2.01Z"/>
          <path class="cls-3" d="M412.93,122l-2.11-1.01,2.92-6.09,2.11,1.01-.04.08-2.36.09-.67,1.41,6.51,3.12.87-.61.08.04-1.33,2.77-.08-.04-.07-1.07-6.51-3.12-.68,1.43,1.41,1.9-.04.08Z"/>
          <path class="cls-3" d="M423.4,109.02l.77-.54.09.03-.85,2.76-.09-.03-.24-1.01-2.57.19-.95,3.08,1.59,1.27,1.3-.71.09.03-.69,2.25-.09-.03-.71-1.27-5.29-4.24-.74.56-.09-.03.52-1.7,7.94-.61ZM419.36,113.33l.89-2.89-4.12.3,3.23,2.59Z"/>
          <path class="cls-3" d="M424.83,105.64l-.09-.02-.33-1.01-6.72-1.34-.69.8-.09-.02.6-3.01.09.02.33,1.02,6.72,1.34.7-.82.09.02-.6,3.01Z"/>
          <path class="cls-3" d="M426.01,99.49h-.09s-.78-1.19-.78-1.19l-6.36-.73-.7.95h-.1s.23-2.03.23-2.03l7.18-3.88-5.65-.64-1.04,1.09h-.1s.29-2.54.29-2.54h.1s.78,1.19.78,1.19l7.03.8-.08.74-7.62,4.1,6.06.69,1.04-1.09h.09s-.29,2.54-.29,2.54Z"/>
        </g>
        <g>
          <polygon class="cls-3" points="386.11 90.62 372.65 67.34 359.22 90.59 357.99 89.88 372.65 64.52 387.33 89.92 386.11 90.62"/>
          <path class="cls-3" d="M344.33,113.93l11.76-20.36c.2-.34.63-.45.96-.26.34.19.45.63.26.96l-10.53,18.24,21.68-.04h0c.39,0,.7.32.71.7,0,.39-.31.71-.7.71l-24.13.05Z"/>
          <path class="cls-3" d="M372.65,60.7c-.39,0-.71-.32-.71-.71v-13.18c0-.39.32-.71.71-.71s.71.32.71.71v13.18c0,.39-.32.71-.71.71Z"/>
          <path class="cls-3" d="M399.42,113.88h-27.48v-23.64c.01-.39.33-.71.72-.71h0c.39,0,.71.32.71.71v22.22s26.05,0,26.05,0c.39,0,.71.32.71.71s-.32.71-.71.71Z"/>
          <path class="cls-3" d="M399.47,47.53h-53.18c-.39,0-.71-.32-.71-.71s.32-.71.71-.71h53.18c.39,0,.71.32.71.71s-.32.71-.71.71Z"/>
          <path class="cls-3" d="M372.65,52.23c-15.44,0-28,12.56-28,28s12.56,28,28,28,28-12.56,28-28-12.56-28-28-28ZM372.65,106.82c-14.66,0-26.59-11.93-26.59-26.59s11.93-26.59,26.59-26.59,26.59,11.93,26.59,26.59-11.93,26.59-26.59,26.59Z"/>
          <polygon class="cls-2" points="376.41 61.88 376.41 61.56 373.3 60 372 60 368.88 61.56 368.88 61.88 376.41 61.88"/>
          <polygon class="cls-2" points="368.88 89.46 368.88 89.78 372 91.34 373.3 91.34 376.41 89.78 376.41 89.46 368.88 89.46"/>
          <polygon class="cls-2" points="347.24 46.12 344.41 46.12 344.41 52.2 344.68 52.2 347.24 46.81 347.24 46.12"/>
          <polygon class="cls-2" points="398.06 46.12 400.88 46.12 400.88 52.2 400.62 52.2 398.06 46.82 398.06 46.12"/>
          <polygon class="cls-2" points="362.76 91.35 362.76 91.03 359.65 89.46 358.35 89.46 355.23 91.03 355.23 91.35 362.76 91.35"/>
          <polygon class="cls-2" points="390.06 91.34 390.06 91.02 386.95 89.46 385.65 89.46 382.53 91.02 382.53 91.34 390.06 91.34"/>
          <path class="cls-3" d="M395.36,105.92c-.24,0-.48-.13-.61-.35l-6.52-11.29c-.19-.34-.08-.77.26-.96.34-.19.77-.08.96.26l6.52,11.29c.19.34.08.77-.26.96-.11.06-.23.09-.35.09Z"/>
          <polygon class="cls-2" points="401.08 113.88 397.32 113.88 397.35 107.8 397.62 107.8 401.08 113.88"/>
        </g>
      </g>
      <text class="cls-1" transform="translate(197.77 342.47)"><tspan class="cls-16" x="0" y="0">W</tspan><tspan class="cls-17" x="103.05" y="0">O</tspan><tspan x="191.4" y="0">LF</tspan><tspan class="cls-15" x="-197.77" y="160">S</tspan><tspan x="-120.52" y="160">AINT LAKE</tspan></text>
      <text class="cls-2" transform="translate(74.75 617.42)"><tspan class="cls-12" x="0" y="0">OF T</tspan><tspan class="cls-9" x="68.3" y="0">H</tspan><tspan class="cls-12" x="89.06" y="0">E</tspan><tspan class="cls-14" x="107.78" y="0"> </tspan><tspan class="cls-8" x="127.56" y="0">M</tspan><tspan class="cls-10" x="175.7" y="0">O</tspan><tspan class="cls-4" x="216.26" y="0">O</tspan><tspan class="cls-7" x="255.14" y="0">N M</tspan><tspan class="cls-5" x="354.16" y="0">O</tspan><tspan class="cls-13" x="393.96" y="0">U</tspan><tspan class="cls-8" x="429.09" y="0">N</tspan><tspan class="cls-11" x="469.22" y="0">T</tspan><tspan class="cls-6" x="498.79" y="0">AIN</tspan></text>
    </g>
  </g>
</svg>