<?xml version="1.0" standalone="no"?>
<!DOCTYPE svg PUBLIC "-//W3C//DTD SVG 20010904//EN"
 "http://www.w3.org/TR/2001/REC-SVG-20010904/DTD/svg10.dtd">
<svg version="1.0" xmlns="http://www.w3.org/2000/svg"
 width="500.000000pt" height="500.000000pt" viewBox="0 0 500.000000 500.000000"
 preserveAspectRatio="xMidYMid meet">
<metadata>
Created by potrace 1.11, written by Peter Selinger 2001-2013
</metadata>
<g transform="translate(0.000000,500.000000) scale(0.100000,-0.100000)"
fill="#000000" stroke="none">
<path d="M2269 4996 c-2 -2 -44 -6 -94 -9 -49 -4 -124 -11 -165 -17 -41 -5
-93 -13 -115 -16 -145 -19 -410 -88 -563 -148 -536 -207 -920 -587 -1131
-1119 -75 -188 -146 -479 -167 -680 -3 -34 -8 -65 -10 -68 -16 -28 -23 -544
-10 -739 8 -116 9 -126 20 -215 61 -455 202 -837 423 -1139 195 -267 509 -507
833 -636 143 -58 383 -128 494 -144 21 -4 41 -8 45 -10 3 -2 30 -7 60 -10 30
-4 64 -9 75 -11 155 -34 808 -41 998 -10 13 2 46 6 73 10 205 24 473 93 663
169 597 240 980 668 1175 1316 37 123 83 336 93 435 3 33 8 63 10 66 18 29 26
684 11 849 -10 103 -12 121 -38 280 -44 262 -117 495 -225 714 -40 80 -129
233 -144 246 -3 3 -23 29 -44 59 -170 240 -470 471 -786 606 -226 97 -554 179
-800 201 -41 3 -84 8 -95 11 -23 5 -581 14 -586 9z"/>
</g>
</svg>
