<?xml version="1.0" standalone="no"?>
<!DOCTYPE svg PUBLIC "-//W3C//DTD SVG 20010904//EN"
 "http://www.w3.org/TR/2001/REC-SVG-20010904/DTD/svg10.dtd">
<svg version="1.0" xmlns="http://www.w3.org/2000/svg"
 width="800.000000pt" height="800.000000pt" viewBox="0 0 800.000000 800.000000"
 preserveAspectRatio="xMidYMid meet">
<metadata>
Created by potrace 1.14, written by Peter Selinger 2001-2017
</metadata>
<g transform="translate(0.000000,800.000000) scale(0.100000,-0.100000)"
fill="#000000" stroke="none">
<path d="M3655 7471 c-292 -150 -482 -281 -669 -461 -129 -124 -221 -240 -312
-393 -193 -323 -337 -477 -445 -477 -47 0 -364 -43 -594 -80 -374 -60 -671
-128 -900 -204 -139 -47 -152 -53 -435 -198 -102 -53 -211 -106 -242 -119
l-58 -23 0 -2758 0 -2758 2110 0 2109 0 15 29 15 28 -147 7 c-687 32 -1090
228 -1231 600 l-9 22 139 -32 c76 -18 193 -40 260 -48 122 -16 348 -20 428 -8
l44 7 -111 77 c-414 291 -763 649 -951 976 -214 375 -280 785 -195 1217 18 88
73 263 107 338 l22 49 1 -159 c4 -394 124 -717 359 -962 l72 -75 -18 90 c-58
284 -41 513 46 618 l24 30 113 -113 c141 -141 241 -222 328 -266 37 -19 189
-75 336 -125 422 -142 505 -189 949 -535 296 -231 411 -295 529 -295 67 0 242
33 322 60 85 30 104 45 104 83 0 47 -27 87 -99 148 -35 30 -66 59 -68 64 -2 6
20 41 47 79 55 75 104 172 113 224 4 17 5 32 3 32 -2 0 -80 -30 -173 -67 -176
-69 -254 -85 -261 -52 -1 9 24 65 57 125 59 105 88 171 79 180 -3 2 -61 -21
-129 -52 -194 -87 -299 -117 -299 -86 0 3 26 46 58 96 32 50 64 105 71 121 17
38 31 95 23 95 -3 0 -64 -29 -136 -65 -143 -72 -255 -107 -283 -89 -38 24 -37
39 6 103 52 76 100 176 108 225 l6 36 -112 -50 c-169 -75 -287 -113 -327 -105
-19 3 -34 8 -34 11 0 3 24 43 54 88 55 81 106 180 106 204 0 19 26 15 145 -22
406 -127 667 -274 923 -521 141 -136 202 -209 374 -450 307 -429 404 -526 660
-660 378 -197 732 -216 1073 -56 l80 37 -100 8 c-267 19 -524 108 -765 266
-260 171 -427 328 -905 848 -87 96 -197 208 -243 250 l-83 77 88 57 c108 70
194 145 248 219 36 49 43 55 63 46 20 -9 22 -17 22 -94 0 -91 -19 -196 -56
-313 -13 -41 -21 -76 -19 -79 9 -9 171 79 227 124 32 25 86 80 120 123 34 42
66 76 72 76 6 -1 59 -12 119 -24 62 -13 121 -20 140 -16 109 21 178 140 147
255 -8 32 -31 64 -81 117 -70 74 -124 167 -117 202 2 9 13 18 25 20 17 3 30
-9 57 -53 103 -161 201 -208 303 -145 48 29 75 90 81 185 3 61 1 88 -11 111
-44 85 -217 201 -687 459 -387 212 -965 577 -1027 648 -17 20 -51 69 -74 109
-85 147 -109 178 -192 244 -159 127 -404 282 -586 370 -299 145 -322 158 -373
204 -27 25 -52 59 -57 75 -5 20 0 74 16 165 38 222 52 328 58 470 17 380 86
588 260 794 l57 67 -38 -7 c-128 -23 -378 -140 -560 -263 l-111 -74 -6 -231
c-11 -417 -49 -567 -200 -778 -65 -91 -210 -259 -273 -318 -38 -35 -38 -35
-19 -5 214 340 336 590 366 748 5 28 14 249 19 491 11 513 35 773 81 893 5 14
8 27 7 29 -2 1 -80 -37 -173 -85z m653 -2507 c151 -30 312 -130 352 -219 23
-51 24 -65 8 -100 -33 -72 -139 -71 -173 2 -20 41 -7 93 28 119 l22 16 -25 -7
c-33 -9 -69 -35 -93 -67 -25 -33 -34 -118 -17 -158 16 -40 71 -87 114 -99 101
-27 210 59 208 166 0 23 1 43 3 43 2 0 18 -21 36 -47 68 -102 127 -141 272
-184 42 -12 74 -26 70 -32 -14 -22 -97 -48 -175 -54 -66 -4 -88 -10 -108 -28
-73 -64 -175 -105 -263 -105 -104 0 -242 58 -316 132 -58 57 -91 130 -98 217
-9 106 26 248 71 293 15 15 14 18 -12 37 -41 29 -112 44 -187 39 -71 -4 -67 4
10 26 99 29 169 31 273 10z m232 -1474 c31 -16 43 -70 30 -138 -9 -52 -40
-152 -66 -217 -12 -30 148 98 253 202 l93 92 0 -44 c0 -71 -20 -195 -41 -250
-10 -27 -19 -52 -19 -53 0 -7 94 50 160 96 36 25 95 75 131 110 42 40 70 59
74 52 4 -6 9 -65 12 -130 5 -108 -1 -166 -23 -224 -5 -13 8 -9 47 15 74 43
123 81 201 158 37 36 71 61 75 57 4 -4 10 -52 11 -105 3 -77 -1 -115 -18 -180
-12 -44 -26 -83 -30 -86 -4 -2 -47 11 -95 31 -267 107 -671 185 -1109 214 -88
5 -161 11 -163 13 -1 2 4 30 12 62 40 150 143 263 288 315 57 20 148 26 177
10z m1262 -381 c19 -10 20 -17 14 -89 -10 -123 -72 -340 -97 -340 -5 0 -32 17
-61 38 -29 20 -87 55 -130 77 l-78 41 88 64 c48 35 121 98 162 141 41 42 76
77 78 78 2 0 13 -4 24 -10z m-1498 -145 c82 -14 168 -32 190 -38 l41 -12 -90
-33 c-49 -18 -118 -40 -152 -49 -54 -14 -65 -14 -88 -2 -30 16 -78 81 -101
136 l-15 36 33 -5 c18 -3 100 -18 182 -33z"/>
</g>
</svg>
